<?xml version="1.0" encoding="UTF-8" standalone="no"?>
<svg
   xmlns:dc="http://purl.org/dc/elements/1.1/"
   xmlns:cc="http://creativecommons.org/ns#"
   xmlns:rdf="http://www.w3.org/1999/02/22-rdf-syntax-ns#"
   xmlns:svg="http://www.w3.org/2000/svg"
   xmlns="http://www.w3.org/2000/svg"
   style="enable-background:new"
   id="svg8246"
   version="1.1"
   viewBox="0 0 209.68703 131.01137"
   height="131.01137mm"
   width="209.68703mm">
  <defs
     id="defs8240">
    <filter
       id="filter120554"
       style="color-interpolation-filters:sRGB">
      <feBlend
         id="feBlend120556"
         in2="BackgroundImage"
         mode="color" />
    </filter>
    <clipPath
       clipPathUnits="userSpaceOnUse"
       id="clipPath128506">
      <path
         d="M 0,651.968 H 481.889 V 0 H 0 Z"
         id="path128504" />
    </clipPath>
    <clipPath
       clipPathUnits="userSpaceOnUse"
       id="clipPath128628">
      <path
         d="M 0,651.968 H 481.889 V 0 H 0 Z"
         id="path128626" />
    </clipPath>
  </defs>
  <metadata
     id="metadata8243">
    <rdf:RDF>
      <cc:Work
         rdf:about="">
        <dc:format>image/svg+xml</dc:format>
        <dc:type
           rdf:resource="http://purl.org/dc/dcmitype/StillImage" />
        <dc:title></dc:title>
      </cc:Work>
    </rdf:RDF>
  </metadata>
  <g
     transform="translate(2.1573457,-168.17609)"
     style="display:inline;opacity:1;filter:url(#filter120554)"
     id="layer3">
    <g
       id="g127492"
       transform="matrix(0.4351368,0,0,-0.4351368,-1.089573,297.85111)">
      <g
         id="g127494" />
      <g
         transform="translate(-2.4568782,-3.0710977)"
         id="g129369">
        <rect
           style="opacity:1;fill:#000017;fill-opacity:1;stroke:none;stroke-width:0.20445476;stroke-linecap:round;stroke-linejoin:round;stroke-miterlimit:4;stroke-dasharray:none;stroke-dashoffset:0;stroke-opacity:1;paint-order:stroke markers fill"
           id="rect129298"
           width="481.88113"
           height="125.26238"
           x="0.0094512254"
           y="-301.08087"
           transform="scale(1,-1)" />
        <g
           id="g128478"
           style="fill:#121423;fill-opacity:1">
          <g
             id="g128480"
             style="fill:#121423;fill-opacity:1">
            <g
               id="g128486"
               style="fill:#121423;fill-opacity:1">
              <g
                 id="g128488"
                 style="fill:#121423;fill-opacity:1">
                <path
                   id="path128498"
                   style="fill:#121423;fill-opacity:1;stroke:none"
                   d="M 0.004,41.981 H 481.887 V 179.846 H 0.004 Z" />
              </g>
            </g>
          </g>
        </g>
        <g
           id="g128500"
           style="fill:#000017;fill-opacity:1">
          <g
             clip-path="url(#clipPath128506)"
             id="g128502"
             style="fill:#000017;fill-opacity:1">
            <g
               transform="translate(36.3535,179.8457)"
               id="g128508"
               style="fill:#000017;fill-opacity:1">
              <path
                 id="path128510"
                 style="fill:#000017;fill-opacity:1;fill-rule:nonzero;stroke:none"
                 d="m 0,0 c 103.123,0 77.456,-43.013 154.108,-43.013 76.654,0 190.277,7.168 125.758,-15.505 -77.522,-27.242 139.794,6.957 165.667,-22.065 V 0 H 0" />
            </g>
          </g>
        </g>
        <g
           id="g128512"
           style="fill:#191722;fill-opacity:1">
          <g
             id="g128514"
             style="fill:#191722;fill-opacity:1">
            <g
               id="g128520"
               style="fill:#191722;fill-opacity:1">
              <g
                 id="g128522"
                 style="fill:#191722;fill-opacity:1">
                <path
                   id="path128532"
                   style="fill:#191722;fill-opacity:1;stroke:none"
                   d="m 349.261,131.44 c 0,-1.522 19.264,-2.756 43.027,-2.756 v 0 c 23.762,0 43.026,1.234 43.026,2.756 v 0 c 0,1.524 -19.264,2.758 -43.026,2.758 v 0 c -23.763,0 -43.027,-1.234 -43.027,-2.758" />
              </g>
            </g>
          </g>
        </g>
        <g
           id="g128534"
           style="fill:#141120;fill-opacity:1">
          <g
             id="g128536"
             style="fill:#141120;fill-opacity:1">
            <g
               id="g128542"
               style="fill:#141120;fill-opacity:1">
              <g
                 id="g128544"
                 style="fill:#141120;fill-opacity:1">
                <path
                   id="path128554"
                   style="fill:#141120;fill-opacity:1;stroke:none"
                   d="m 15.092,169.92 c 0,-1.523 29.114,-2.758 65.029,-2.758 v 0 c 35.914,0 65.03,1.235 65.03,2.758 v 0 c 0,1.523 -29.116,2.757 -65.03,2.757 v 0 c -35.915,0 -65.029,-1.234 -65.029,-2.757" />
              </g>
            </g>
          </g>
        </g>
        <g
           id="g128556"
           style="fill:#191722;fill-opacity:1">
          <g
             id="g128558"
             style="fill:#191722;fill-opacity:1">
            <g
               id="g128564"
               style="fill:#191722;fill-opacity:1">
              <g
                 id="g128566"
                 style="fill:#191722;fill-opacity:1">
                <path
                   id="path128576"
                   style="fill:#111122;fill-opacity:1;stroke:none"
                   d="m 26.678,122.893 c 0,-1.522 19.263,-2.757 43.025,-2.757 v 0 c 23.764,0 43.027,1.235 43.027,2.757 v 0 c 0,1.523 -19.263,2.758 -43.027,2.758 v 0 c -23.762,0 -43.025,-1.235 -43.025,-2.758" />
              </g>
            </g>
          </g>
        </g>
        <g
           id="g128578"
           style="fill:#111122;fill-opacity:1">
          <g
             id="g128580"
             style="fill:#111122;fill-opacity:1">
            <g
               id="g128586"
               style="fill:#111122;fill-opacity:1">
              <g
                 id="g128588"
                 style="fill:#111122;fill-opacity:1">
                <path
                   id="path128598"
                   style="fill:#111122;fill-opacity:1;stroke:none"
                   d="m 166.244,148.424 c 0,-3.223 59.995,-5.834 134.004,-5.834 v 0 c 74.011,0 134.006,2.611 134.006,5.834 v 0 c 0,3.221 -59.995,5.831 -134.006,5.831 v 0 c -74.009,0 -134.004,-2.61 -134.004,-5.831" />
              </g>
            </g>
          </g>
        </g>
        <g
           id="g128600"
           style="fill:#191722;fill-opacity:1">
          <g
             id="g128602"
             style="fill:#191722;fill-opacity:1">
            <g
               id="g128608"
               style="fill:#191722;fill-opacity:1">
              <g
                 id="g128610"
                 style="fill:#191722;fill-opacity:1">
                <path
                   id="path128620"
                   style="fill:#191722;fill-opacity:1;stroke:none"
                   d="m 191.314,169.92 c 0,-1.523 59.995,-2.758 134.004,-2.758 v 0 c 74.009,0 134.004,1.235 134.004,2.758 v 0 c 0,1.523 -59.995,2.757 -134.004,2.757 v 0 c -74.009,0 -134.004,-1.234 -134.004,-2.757" />
              </g>
            </g>
          </g>
        </g>
        <g
           id="g128622">
          <g
             clip-path="url(#clipPath128628)"
             id="g128624">
            <g
               transform="translate(0.0034,118.1807)"
               id="g128630">
              <path
                 id="path128632"
                 style="fill:#413b36;fill-opacity:1;fill-rule:nonzero;stroke:none"
                 d="m 0,0 c 0,0 4.296,36.035 53.586,-11.496 26.56,20.037 41.628,-24.503 58.429,-15.358 36.525,19.88 51.511,-13.513 50.607,-35.725 8.802,41.472 32.619,3.262 39.608,-11.65 0.93,25.626 30.701,17.709 40.64,-24.231 -45.172,-11.183 -242.87,0 -242.87,0 z" />
            </g>
            <g
               transform="translate(0.0034,113.1035)"
               id="g128634">
              <path
                 id="path128636"
                 style="fill:#2c2825;fill-opacity:1;fill-rule:nonzero;stroke:none"
                 d="m 0,0 c 0,0 3.814,31.985 47.563,-10.205 23.575,17.784 36.95,-21.747 51.862,-13.63 32.419,17.645 45.722,-11.994 44.919,-31.712 7.812,36.812 28.952,2.896 35.156,-10.339 0.827,22.747 27.251,15.718 36.075,-21.507 -40.096,-9.926 -215.575,0 -215.575,0 z" />
            </g>
            <g
               transform="translate(178.5967,67.5117)"
               id="g128638">
              <path
                 id="path128640"
                 style="fill:#2c2825;fill-opacity:1;fill-rule:nonzero;stroke:none"
                 d="M 0,0 C 0,0 2.146,18.171 -8.64,25.656 -3.22,19.1 -12.721,11.47 0,0" />
            </g>
            <g
               transform="translate(179.9575,44.8828)"
               id="g128642">
              <path
                 id="path128644"
                 style="fill:#2c2825;fill-opacity:1;fill-rule:nonzero;stroke:none"
                 d="M 0,0 C 0,0 -1.405,7.825 3.079,11.351 0.898,8.367 5.218,5.303 0,0" />
            </g>
            <g
               transform="translate(178.5015,88.25)"
               id="g128646">
              <path
                 id="path128648"
                 style="fill:#2c2825;fill-opacity:1;fill-rule:nonzero;stroke:none"
                 d="M 0,0 C 0,0 -3.232,18.012 7.091,26.125 2.07,19.259 12.012,12.208 0,0" />
            </g>
            <g
               transform="translate(179.1514,110.0508)"
               id="g128650">
              <path
                 id="path128652"
                 style="fill:#2c2825;fill-opacity:1;fill-rule:nonzero;stroke:none"
                 d="M 0,0 C 0,0 0.646,20.211 -12.907,28.653 -5.805,21.299 -16.258,12.901 0,0" />
            </g>
            <g
               transform="translate(182.0151,125.6631)"
               id="g128654">
              <path
                 id="path128656"
                 style="fill:#2c2825;fill-opacity:1;fill-rule:nonzero;stroke:none"
                 d="M 0,0 C 0,0 -4.704,26.05 11.23,39.572 3.441,28.69 18.583,19.815 0,0" />
            </g>
            <g
               transform="translate(183.6021,25.0098)"
               id="g128658">
              <path
                 id="path128660"
                 style="fill:#2c2825;fill-opacity:1;fill-rule:nonzero;stroke:none"
                 d="m 0,0 c 0.281,0.121 0.446,0.427 0.381,0.735 -0.145,0.689 -14.394,69.328 4.104,118.648 0.129,0.342 -0.045,0.72 -0.383,0.845 -0.341,0.127 -0.719,-0.044 -0.845,-0.383 C -15.377,70.159 -1.046,1.155 -0.903,0.463 -0.827,0.108 -0.48,-0.117 -0.126,-0.041 -0.081,-0.03 -0.039,-0.019 0,0" />
            </g>
            <g
               transform="translate(194.2168,61.376)"
               id="g128662">
              <path
                 id="path128664"
                 style="fill:#2c2825;fill-opacity:1;fill-rule:nonzero;stroke:none"
                 d="M 0,0 C 0,0 13.051,19.039 5.384,33.718 7.596,23.219 -7.487,20.266 0,0" />
            </g>
            <g
               transform="translate(210.2759,82.4766)"
               id="g128666">
              <path
                 id="path128668"
                 style="fill:#2c2825;fill-opacity:1;fill-rule:nonzero;stroke:none"
                 d="M 0,0 C 0,0 17.799,14.698 33.105,8.372 22.45,9.64 20.854,-5.652 0,0" />
            </g>
            <g
               transform="translate(226.1602,101.8008)"
               id="g128670">
              <path
                 id="path128672"
                 style="fill:#2c2825;fill-opacity:1;fill-rule:nonzero;stroke:none"
                 d="M 0,0 C 0,0 21.206,25.797 11.975,50.49 13.859,33.716 -8.275,33.258 0,0" />
            </g>
            <g
               transform="translate(247.6987,123.1299)"
               id="g128674">
              <path
                 id="path128676"
                 style="fill:#2c2825;fill-opacity:1;fill-rule:nonzero;stroke:none"
                 d="M 0,0 C 0,0 15.345,29.657 41.679,30.911 25.52,26.027 33.823,5.507 0,0" />
            </g>
            <g
               transform="translate(171.8311,21.2979)"
               id="g128678">
              <path
                 id="path128680"
                 style="fill:#2c2825;fill-opacity:1;fill-rule:nonzero;stroke:none"
                 d="m 0,0 c 0.371,-0.094 0.775,0.085 0.947,0.445 0.381,0.8 38.958,80.372 95.404,115.435 0.389,0.241 0.507,0.752 0.266,1.14 -0.242,0.387 -0.753,0.507 -1.14,0.266 C 38.619,81.965 -0.16,1.965 -0.546,1.16 -0.743,0.747 -0.569,0.254 -0.158,0.058 -0.107,0.031 -0.053,0.014 0,0" />
            </g>
            <g
               transform="translate(265.2085,38.0273)"
               id="g128682">
              <path
                 id="path128684"
                 style="fill:#413b36;fill-opacity:1;fill-rule:nonzero;stroke:none"
                 d="m 0,0 c 40.181,0 51.746,31.866 79.141,21.413 0,20.595 17.047,28.871 29.833,6.774 -9.132,25.387 6.017,28.185 12.141,0 1.859,22.345 26.82,48.974 56.651,35.049 8.524,21.386 26.684,24.768 38.912,16.685 L 216.678,0 H 0" />
            </g>
            <path
               id="path128686"
               style="fill:#2c2825;fill-opacity:1;fill-rule:nonzero;stroke:none"
               d="M 481.886,41.981 H 0.003 V 0 h 481.883 z" />
            <g
               transform="translate(285.6128,41.9814)"
               id="g128692">
              <path
                 id="path128694"
                 style="fill:#2c2825;fill-opacity:1;fill-rule:nonzero;stroke:none"
                 d="m 0,0 c 36.396,0 46.874,28.863 71.689,19.395 0,18.655 15.443,26.153 27.023,6.135 -8.272,22.997 5.451,25.533 10.997,0 1.686,20.241 24.295,44.364 51.317,31.751 7.72,19.37 24.173,22.434 35.247,15.113 L 196.273,0 H 0" />
            </g>
            <g
               transform="translate(378.1411,400.7124)"
               id="g128700" />
          </g>
        </g>
      </g>
    </g>
  </g>
</svg>
