<?xml version="1.0" encoding="UTF-8" standalone="no"?>
<svg
   xmlns:osb="http://www.openswatchbook.org/uri/2009/osb"
   xmlns:dc="http://purl.org/dc/elements/1.1/"
   xmlns:cc="http://creativecommons.org/ns#"
   xmlns:rdf="http://www.w3.org/1999/02/22-rdf-syntax-ns#"
   xmlns:svg="http://www.w3.org/2000/svg"
   xmlns="http://www.w3.org/2000/svg"
   xmlns:xlink="http://www.w3.org/1999/xlink"
   xmlns:sodipodi="http://sodipodi.sourceforge.net/DTD/sodipodi-0.dtd"
   xmlns:inkscape="http://www.inkscape.org/namespaces/inkscape"
   enable-background="new 0 0 512 512"
   height="232.81139"
   id="Spell_x5F_Scroll"
   version="1.1"
   viewBox="0 0 474.18597 232.81139"
   width="474.18597"
   xml:space="preserve"
   sodipodi:docname="jsgamicon.svg"
   inkscape:version="0.92.4 5da689c313, 2019-01-14"><metadata
     id="metadata61"><rdf:RDF><cc:Work
         rdf:about=""><dc:format>image/svg+xml</dc:format><dc:type
           rdf:resource="http://purl.org/dc/dcmitype/StillImage" /><dc:title></dc:title></cc:Work></rdf:RDF></metadata><defs
     id="defs59"><linearGradient
       id="linearGradient887"
       osb:paint="solid"><stop
         style="stop-color:#ffddcd;stop-opacity:1;"
         offset="0"
         id="stop885" /></linearGradient></defs><sodipodi:namedview
     pagecolor="#ffffff"
     bordercolor="#666666"
     borderopacity="1"
     objecttolerance="10"
     gridtolerance="10"
     guidetolerance="10"
     inkscape:pageopacity="0"
     inkscape:pageshadow="2"
     inkscape:window-width="1920"
     inkscape:window-height="1015"
     id="namedview57"
     showgrid="false"
     inkscape:zoom="1.3037281"
     inkscape:cx="219.93796"
     inkscape:cy="92.914258"
     inkscape:window-x="0"
     inkscape:window-y="0"
     inkscape:window-maximized="1"
     inkscape:current-layer="g857"
     fit-margin-top="0"
     fit-margin-left="0"
     fit-margin-right="0"
     fit-margin-bottom="0" /><linearGradient
     gradientUnits="userSpaceOnUse"
     id="SVGID_1_"
     x1="65.334503"
     x2="367.38611"
     y1="188.0972"
     y2="393.30801"><stop
       offset="0.0103"
       style="stop-color:#FFDDCD"
       id="stop2" /><stop
       offset="1"
       style="stop-color:#F79A80"
       id="stop4" /></linearGradient><linearGradient
     gradientUnits="userSpaceOnUse"
     id="SVGID_2_"
     x1="286.22461"
     x2="562.91272"
     y1="204.0674"
     y2="468.45789"
     xlink:href="#SVGID_1_"><stop
       offset="0.0103"
       style="stop-color:#FFDDCD"
       id="stop45" /><stop
       offset="1"
       style="stop-color:#F79A80"
       id="stop47" /></linearGradient><flowRoot
     xml:space="preserve"
     id="flowRoot1077"
     style="font-style:normal;font-weight:normal;font-size:40px;line-height:1.25;font-family:sans-serif;letter-spacing:0px;word-spacing:0px;fill:#000000;fill-opacity:1;stroke:none"
     transform="translate(-19.95246,-104.89265)"><flowRegion
       id="flowRegion1079"><rect
         id="rect1081"
         width="470.77966"
         height="162.71187"
         x="190.91525"
         y="193.08475" /></flowRegion><flowPara
       id="flowPara1083" /></flowRoot><g
     id="g1167"
     transform="matrix(0.5854264,0,0,0.5854264,-26.842586,-20.456715)"

     inkscape:export-xdpi="45"
     inkscape:export-ydpi="45"><g
       id="g1202"
       inkscape:export-xdpi="45"
       inkscape:export-ydpi="45"
       transform="translate(-5.5587471,-22.234988)"><g
   id="g857"

   inkscape:export-xdpi="123.6983"
   inkscape:export-ydpi="123.6983"><g
     id="g871"

     inkscape:export-xdpi="82.398048"
     inkscape:export-ydpi="82.398048"><path
   d="m 56.727,159.284 c 3.669,8.513 9.077,23.904 9.053,40.645 -0.003,2.011 1.292,3.834 3.258,4.256 4.574,0.979 12.198,4.247 12.198,15.139 0,0 0,9.762 -8.884,13.65 -1.684,0.736 -2.75,2.422 -2.567,4.25 1.805,18.046 10.158,106.854 7.208,176.821 0,0 8.652,5.768 16.974,10.964 2.614,1.632 6.063,0.344 6.936,-2.611 1.631,-5.515 4.064,-14.063 5.793,-21.555 0,0 5.652,16.554 6.122,33.596 0.067,2.421 2.012,4.35 4.432,4.465 11.832,0.563 44.852,-0.203 67.712,-23.444 0,0 34.26693,-3.38249 85.13427,-7.6601 3.65736,-0.30756 7.63637,-17.55138 8.51109,-13.817 1.74483,7.44903 10.16955,-17.78174 12.13951,-14.55455 3.24309,5.31281 1.7504,26.51969 4.75953,26.27659 32.45702,-2.62203 69.59968,-5.41398 107.93108,-7.88349 3.45885,-0.22284 1.97832,-21.49905 8.23255,-16.38936 2.0589,1.68212 13.21198,-1.10613 18.10538,2.57282 2.08752,1.56943 -0.26629,9.85285 0.87053,9.79399 51.82092,-2.68288 103.13605,-4.52866 145.34782,-4.97091 2.75321,-0.0288 -12.21996,-8.38055 5.97158,-19.05155 2.20807,-1.29523 5.79741,6.23302 8.88895,11.55855 2.29227,3.94869 4.50429,7.38966 6.30028,7.3926 37.93446,0.062 65.72883,1.56106 75.33806,5.0276 0,0 57.25695,-103.98451 7.38195,-274.45551 0,0 -24.22732,-0.36434 -55.5473,0.65731 -5.7031,0.18603 -12.43984,13.21819 -15.46696,18.67483 -3.9038,7.03695 -5.40737,-11.5965 -8.38661,-14.23947 -3.437,-3.04905 -6.87625,-6.39539 -11.491,-6.67524 -23.51658,-1.42611 -54.69269,1.37257 -83.49219,1.39545 -2.85272,0.002 -15.16444,4.54411 -12.16145,13.98485 1.8357,5.77105 -6.78643,9.34936 -8.99031,9.35194 -5.58594,0.007 -5.22919,-23.30764 -10.84662,-23.29837 -32.35111,0.0534 -64.97007,0.15405 -94.92744,0.32609 -5.52724,0.0317 0.42595,14.16763 -4.90168,14.20437 -2.3061,0.0159 -9.98285,-1.28965 -11.64277,-5.87785 -2.39977,-6.63322 -12.17768,-8.13206 -14.91192,-8.10959 -53.01462,0.43558 -92.31906,1.16619 -97.23533,2.36198 -2.428,0.591 -4.262,2.57 -4.603,5.045 -0.921,6.686 -3.036,20.308 -5.986,28.737 -0.559,1.599 -2.856,1.497 -3.31,-0.134 -1.31,-4.705 -3.392,-12.349 -5.303,-20.092 -0.825,-3.34 -4.181,-5.364 -7.5,-4.457 -8.589,2.348 -26.073,8.633 -51.411,24.99 0,0 -36.283,23.009 -75.414,7.301 -2.973,-1.193 -5.908,-2.412 -8.949,-3.419 -6.126,-2.027 -16.693,-5.262 -26.005,-6.807 -3.394,-0.564 -6.028,2.905 -4.665,6.064 z"
   id="path7"
   style="opacity:1;fill:#ffffff;fill-opacity:1;stroke:#000000;stroke-width:10;stroke-miterlimit:4;stroke-dasharray:none;stroke-opacity:1"
   inkscape:connector-curvature="0"
   sodipodi:nodetypes="cccccccccccccssssssssssssccsssssssssssscccccccccccc"

   inkscape:export-xdpi="44.320015"
   inkscape:export-ydpi="44.320015" /><g
   id="g1057"
   transform="translate(400)"

   inkscape:export-xdpi="44.320015"
   inkscape:export-ydpi="44.320015"><path
     inkscape:connector-curvature="0"
     style="fill:#040000;fill-opacity:1;stroke:none;stroke-width:0.98321426;stroke-opacity:1"
     id="path9"
     d="m 275.369,390.11181 c 0,0 57.906,-102.49062 8.031,-267.28669 0,0 -8.926,-0.10923 -20.213,1.33986 5.65,31.03527 25.88,161.60206 -12.577,262.04423 8.101,-0.10441 16.456,1.00634 24.759,3.9026 z" /><path
     style="fill:#040000;fill-opacity:1;stroke:#000000;stroke-width:9.93059063;stroke-miterlimit:4;stroke-dasharray:none;stroke-opacity:1"
     id="path37"
     d="m 277.37394,106.938 c 0,0 13.0243,-17.457 43.09448,-31.779 22.09406,-10.522 46.7275,-14.84 71.00988,-12.31 11.63083,1.212 23.0536,3.977 28.8207,9.825 0,0 -3.93185,32.563 -17.69478,79.082 -9.9e-4,0 -95.1384,9.381 -125.23028,-44.818 z"
     inkscape:connector-curvature="0" /><path
     style="fill:#ffffff;fill-opacity:1;stroke:#000000;stroke-width:9.85652924;stroke-miterlimit:4;stroke-dasharray:none;stroke-opacity:1"
     id="path41"
     d="m 453.89048,126.531 c 0,0 -16.63228,-17.622 -51.50761,-19.271 l -8.15487,45.116 c 9.7e-4,0 47.56327,-1.071 59.66248,-25.845 z"
     inkscape:connector-curvature="0" /><path
     style="fill:#ffffff;fill-opacity:1;stroke:#000000;stroke-width:10;stroke-miterlimit:4;stroke-dasharray:none;stroke-opacity:1"
     id="path39"
     d="m 338.829,107.26 4.513,41.156 c 30.76,6.067 59.014,3.339 59.014,3.339 13.956,-46.519 17.943,-79.081 17.943,-79.081 0,0 -20.267,37.549 -81.47,34.586 z"
     inkscape:connector-curvature="0" /><path
     inkscape:connector-curvature="0"
     style="fill:#ffffff;fill-opacity:1;stroke:none;stroke-width:0.9056893;stroke-opacity:1"
     id="path43"
     d="m 390.13539,104.26873 c -2.67784,12.73026 -8.83472,31.36292 -23.75239,47.39012 19.18574,1.47056 33.67005,0.17002 33.67005,0.17002 13.06255,-40.76822 16.79431,-69.304826 16.79431,-69.304826 0,0 -7.35494,12.744284 -26.71197,21.744686 z" /><path
     sodipodi:nodetypes="ccsccccccccc"
     inkscape:connector-curvature="0"
     style="fill:#ffffff;fill-opacity:1;stroke:#000000;stroke-width:10;stroke-miterlimit:4;stroke-dasharray:none;stroke-opacity:1"
     id="path50"
     d="m 275.369,106.938 c 0,0 61.723,58.783 180.271,19.594 0,0 -0.007,0.0689 -0.0205,0.20462 -0.75331,7.47472 -22.19748,217.69583 -58.76346,293.71338 0,0 -21.566,23.226 -43.328,29.226 -3.007,0.829 -6.047,-1.267 -6.544,-4.346 l -4.013,-24.88 c 0,0 -4.845,13.729 -12.336,26.521 -1.318,2.251 -4.04,3.252 -6.483,2.337 -10.654,-3.988 -39.778,-15.392 -61.392,-28.563 -4.424,-2.695 -6.023,-8.305 -3.65,-12.908 14.403,-27.934 57.653,-131.19 16.259,-300.899 z" /><path
     inkscape:connector-curvature="0"
     style="fill:#040000;fill-opacity:1;stroke-width:0.9731133"
     id="path52"
     d="m 384.05295,143.53245 c 7.7734,7.14518 20.61881,23.07778 18.96802,49.51201 0,0 -1.57005,97.1297 -19.04195,193.09027 -2.78114,15.27745 -8.9699,29.86278 -18.90479,41.7925 -1.56518,1.87974 -3.2578,3.7517 -5.08466,5.5818 -1.54962,1.55365 -4.14399,1.23046 -5.18875,-0.69991 l -8.7627,-16.18277 3.90373,24.21867 c 0.48346,2.99728 3.44068,5.03765 6.36579,4.23162 21.1694,-5.84075 42.14813,-28.45029 42.14813,-28.45029 36.21617,-75.34273 57.18323,-286.11682 57.18323,-286.11682 -26.90581,8.90227 -50.76004,12.56734 -71.58605,13.02292 z" /></g><path
   inkscape:connector-curvature="0"
   d="m 154.50227,217.09615 c 0.004,-0.034 0.007,-0.068 0.008,-0.102 0,-0.015 0.004,-0.028 0.004,-0.042 0,-0.014 -0.004,-0.028 -0.004,-0.042 -0.001,-0.034 -0.004,-0.068 -0.008,-0.102 -0.003,-0.037 -0.008,-0.074 -0.014,-0.11 -0.006,-0.032 -0.012,-0.063 -0.02,-0.094 -0.003,-0.014 -0.003,-0.028 -0.007,-0.042 -0.004,-0.016 -0.012,-0.029 -0.017,-0.044 -0.01,-0.033 -0.021,-0.065 -0.033,-0.098 -0.014,-0.033 -0.026,-0.065 -0.041,-0.098 -0.014,-0.027 -0.026,-0.054 -0.04,-0.081 -0.015,-0.027 -0.031,-0.053 -0.048,-0.08 -0.019,-0.03 -0.038,-0.06 -0.059,-0.088 -0.019,-0.025 -0.036,-0.05 -0.056,-0.073 -0.02,-0.023 -0.04,-0.046 -0.062,-0.068 -0.023,-0.025 -0.048,-0.05 -0.074,-0.074 -0.021,-0.021 -0.044,-0.042 -0.067,-0.061 -0.023,-0.019 -0.049,-0.038 -0.073,-0.056 -0.029,-0.021 -0.058,-0.04 -0.088,-0.059 -0.026,-0.017 -0.054,-0.033 -0.081,-0.048 -0.026,-0.014 -0.053,-0.027 -0.08,-0.039 -0.031,-0.015 -0.063,-0.028 -0.096,-0.041 -0.033,-0.013 -0.067,-0.024 -0.102,-0.035 -0.015,-0.004 -0.027,-0.012 -0.042,-0.016 l -8.796,-2.372 c -1.6,-9.299 -8.868,-16.583 -18.165,-18.201 l -2.358,-8.749 c -0.004,-0.015 -0.012,-0.028 -0.017,-0.043 -0.01,-0.034 -0.021,-0.066 -0.033,-0.099 -0.014,-0.034 -0.027,-0.067 -0.042,-0.099 -0.013,-0.026 -0.025,-0.052 -0.038,-0.077 -0.016,-0.028 -0.031,-0.055 -0.049,-0.082 -0.02,-0.031 -0.039,-0.062 -0.062,-0.091 -0.017,-0.023 -0.033,-0.046 -0.051,-0.068 -0.021,-0.024 -0.042,-0.047 -0.063,-0.071 -0.024,-0.026 -0.05,-0.052 -0.077,-0.076 -0.021,-0.019 -0.041,-0.039 -0.063,-0.057 -0.024,-0.02 -0.05,-0.039 -0.075,-0.058 -0.03,-0.021 -0.061,-0.041 -0.091,-0.061 -0.025,-0.016 -0.05,-0.031 -0.076,-0.045 -0.026,-0.014 -0.054,-0.028 -0.082,-0.041 -0.032,-0.015 -0.064,-0.029 -0.099,-0.042 -0.031,-0.01 -0.064,-0.02 -0.096,-0.031 -0.016,-0.004 -0.028,-0.013 -0.044,-0.017 -0.014,-0.004 -0.028,-0.003 -0.042,-0.007 -0.031,-0.007 -0.062,-0.014 -0.093,-0.019 -0.036,-0.006 -0.072,-0.011 -0.109,-0.015 -0.036,-0.003 -0.071,-0.006 -0.106,-0.007 -0.014,0 -0.026,-0.004 -0.039,-0.004 -0.014,0 -0.027,0.004 -0.042,0.004 -0.033,0.001 -0.066,0.003 -0.1,0.007 -0.041,0.003 -0.08,0.009 -0.119,0.016 -0.03,0.005 -0.059,0.011 -0.088,0.019 -0.014,0.003 -0.028,0.003 -0.042,0.007 -0.014,0.004 -0.025,0.011 -0.039,0.015 -0.037,0.011 -0.073,0.023 -0.109,0.038 -0.031,0.012 -0.062,0.025 -0.092,0.039 -0.026,0.012 -0.051,0.024 -0.076,0.037 -0.03,0.016 -0.06,0.034 -0.089,0.052 -0.029,0.018 -0.056,0.037 -0.084,0.057 -0.023,0.017 -0.047,0.034 -0.07,0.053 -0.026,0.021 -0.05,0.043 -0.074,0.066 -0.025,0.023 -0.048,0.047 -0.072,0.072 -0.02,0.021 -0.04,0.042 -0.059,0.065 -0.021,0.025 -0.04,0.051 -0.059,0.078 -0.021,0.028 -0.04,0.057 -0.059,0.087 -0.016,0.026 -0.031,0.051 -0.046,0.078 -0.015,0.027 -0.028,0.055 -0.041,0.083 -0.015,0.032 -0.028,0.064 -0.041,0.097 -0.013,0.032 -0.023,0.064 -0.034,0.098 -0.004,0.015 -0.013,0.028 -0.017,0.044 l -2.353,8.726 c -9.361,1.574 -16.68,8.867 -18.288,18.223 l -8.797998,2.372 c -0.015,0.004 -0.027,0.012 -0.042,0.016 -0.035,0.01 -0.069,0.022 -0.103,0.035 -0.032,0.012 -0.063,0.025 -0.095,0.04 -0.026,0.012 -0.052,0.024 -0.078,0.038 -0.03,0.016 -0.058,0.033 -0.086,0.051 -0.029,0.018 -0.058,0.037 -0.085,0.058 -0.024,0.018 -0.048,0.034 -0.07,0.053 -0.025,0.021 -0.049,0.043 -0.073,0.065 -0.025,0.023 -0.048,0.047 -0.072,0.072 -0.02,0.021 -0.04,0.042 -0.059,0.065 -0.021,0.025 -0.04,0.051 -0.059,0.078 -0.021,0.028 -0.04,0.057 -0.058,0.087 -0.016,0.026 -0.031,0.051 -0.046,0.077 -0.015,0.027 -0.028,0.055 -0.041,0.083 -0.015,0.032 -0.028,0.064 -0.041,0.097 -0.009,0.032 -0.02,0.064 -0.03,0.097 -0.004,0.015 -0.013,0.028 -0.017,0.044 -0.004,0.014 -0.003,0.028 -0.007,0.042 -0.007,0.031 -0.014,0.062 -0.019,0.094 -0.006,0.037 -0.011,0.073 -0.015,0.11 -0.003,0.034 -0.006,0.068 -0.007,0.102 0,0.015 -0.004,0.028 -0.004,0.042 0,0.014 0.004,0.028 0.004,0.042 10e-4,0.034 0.003,0.068 0.007,0.102 0.004,0.037 0.008,0.074 0.015,0.11 0.005,0.032 0.012,0.063 0.019,0.094 0.003,0.014 0.003,0.028 0.007,0.042 0.003,0.01 0.01,0.018 0.013,0.028 0.011,0.039 0.023,0.076 0.037,0.114 0.018,0.046 0.039,0.09 0.061,0.134 0.021,0.042 0.042,0.084 0.067,0.124 0.011,0.017 0.018,0.035 0.029,0.051 0.004,0.006 0.009,0.011 0.013,0.016 0.013,0.019 0.028,0.033 0.042,0.051 0.03,0.039 0.06,0.076 0.093,0.112 0.032,0.034 0.066,0.065 0.102,0.097 0.028,0.024 0.053,0.051 0.083,0.074 0.007,0.006 0.016,0.01 0.024,0.015 0.002,0.002 0.005,0.003 0.007,0.005 0.04,0.029 0.082,0.054 0.124,0.078 0.041,0.024 0.081,0.048 0.125,0.068 0.039,0.018 0.079,0.032 0.119,0.047 0.021,0.008 0.041,0.015 0.062,0.021 0.02,0.007 0.038,0.017 0.059,0.022 l 8.797998,2.372 c 1.599,9.3 8.868,16.584 18.165,18.202 l 2.358,8.747 c 0.003,0.011 0.01,0.018 0.013,0.028 0.011,0.038 0.023,0.076 0.037,0.114 0.018,0.046 0.039,0.09 0.061,0.134 0.021,0.042 0.042,0.084 0.067,0.124 0.011,0.017 0.018,0.035 0.029,0.051 0.004,0.006 0.009,0.011 0.013,0.016 0.013,0.019 0.028,0.033 0.042,0.051 0.03,0.039 0.06,0.076 0.093,0.112 0.032,0.034 0.066,0.065 0.102,0.097 0.028,0.024 0.053,0.051 0.083,0.074 0.007,0.006 0.016,0.01 0.024,0.015 0.002,0.002 0.005,0.003 0.007,0.005 0.04,0.029 0.082,0.054 0.124,0.078 0.041,0.024 0.081,0.048 0.125,0.068 0.039,0.018 0.079,0.032 0.119,0.047 0.021,0.008 0.041,0.015 0.062,0.021 0.02,0.007 0.038,0.017 0.059,0.022 0.012,0.003 0.023,0.002 0.035,0.005 0.114,0.027 0.231,0.047 0.354,0.047 0,0 0.001,0 0.001,0 v 0 0 0 0 c 0,0 0.001,0 0.001,0 0.123,0 0.24,-0.02 0.354,-0.047 0.012,-0.003 0.023,-0.002 0.035,-0.005 0.021,-0.006 0.039,-0.016 0.059,-0.022 0.021,-0.007 0.041,-0.014 0.062,-0.021 0.041,-0.015 0.08,-0.029 0.118,-0.047 0.045,-0.021 0.085,-0.044 0.127,-0.068 0.041,-0.024 0.083,-0.049 0.122,-0.078 0.003,-0.002 0.006,-0.003 0.009,-0.005 0.007,-0.006 0.016,-0.009 0.022,-0.015 0.03,-0.023 0.056,-0.05 0.084,-0.075 0.034,-0.031 0.068,-0.062 0.1,-0.095 0.034,-0.037 0.064,-0.075 0.095,-0.114 0.013,-0.018 0.028,-0.032 0.041,-0.05 0.004,-0.006 0.009,-0.01 0.012,-0.016 0.012,-0.016 0.019,-0.034 0.029,-0.051 0.025,-0.04 0.047,-0.082 0.068,-0.125 0.021,-0.044 0.042,-0.087 0.06,-0.133 0.015,-0.037 0.026,-0.075 0.038,-0.114 0.003,-0.011 0.01,-0.018 0.013,-0.028 l 2.353,-8.727 c 9.361,-1.573 16.681,-8.865 18.288,-18.223 l 8.798,-2.372 c 0.021,-0.006 0.038,-0.016 0.059,-0.022 0.021,-0.007 0.041,-0.014 0.062,-0.021 0.04,-0.015 0.08,-0.029 0.118,-0.047 0.045,-0.021 0.085,-0.044 0.127,-0.068 0.041,-0.024 0.083,-0.049 0.122,-0.078 0.003,-0.002 0.006,-0.003 0.009,-0.005 0.007,-0.006 0.016,-0.009 0.022,-0.015 0.03,-0.023 0.056,-0.05 0.084,-0.075 0.034,-0.031 0.068,-0.062 0.1,-0.095 0.034,-0.037 0.064,-0.075 0.095,-0.114 0.013,-0.018 0.028,-0.032 0.041,-0.05 0.004,-0.006 0.009,-0.01 0.012,-0.016 0.012,-0.016 0.019,-0.034 0.029,-0.051 0.025,-0.04 0.047,-0.082 0.068,-0.125 0.021,-0.044 0.042,-0.087 0.06,-0.133 0.015,-0.038 0.026,-0.076 0.038,-0.114 0.003,-0.01 0.01,-0.018 0.013,-0.028 0.004,-0.014 0.004,-0.028 0.007,-0.042 0.008,-0.031 0.014,-0.062 0.02,-0.094 -0.001,-0.034 0.004,-0.07 0.007,-0.107 z m -13.139,-4.839 -11.054,-2.98 -2.993,-11.101 c 6.922,1.735 12.329,7.154 14.047,14.081 z m -23.402,-14.113 -2.992,11.098 -11.181,3.015 c 1.729,-6.98 7.186,-12.414 14.173,-14.113 z m -14.172,23.501 11.054,2.98 2.993,11.101 c -6.923,-1.735 -12.329,-7.154 -14.047,-14.081 z m 23.402,14.113 2.992,-11.098 11.181,-3.015 c -1.729,6.98 -7.186,12.415 -14.173,14.113 z"
   id="path2"
   style="fill:#000000;fill-opacity:1"
   inkscape:export-xdpi="44.320015"
   inkscape:export-ydpi="44.320015" /><text
   xml:space="preserve"
   style="font-style:normal;font-variant:normal;font-weight:bold;font-stretch:normal;font-size:163.40835571px;line-height:1.25;font-family:Elley;-inkscape-font-specification:'Elley Bold';letter-spacing:0.17081566px;word-spacing:0px;fill:#000000;fill-opacity:1;stroke:none;stroke-width:4.08520889"
   x="131.10886"
   y="382.66138"
   id="text1087"
   transform="matrix(1.0539943,-0.09709638,0,0.94877174,0,0)"
   inkscape:export-xdpi="44.320015"
   inkscape:export-ydpi="44.320015"><tspan
     sodipodi:role="line"
     id="tspan1085"
     x="131.10886"
     y="382.66138"
     style="font-style:normal;font-variant:normal;font-weight:bold;font-stretch:normal;font-family:Elley;-inkscape-font-specification:'Elley Bold';letter-spacing:9.39813519px;word-spacing:0px;fill:#000000;fill-opacity:1;stroke:none;stroke-width:7.56902647;stroke-miterlimit:4;stroke-dasharray:none;stroke-opacity:1"
     transform="matrix(1.1588358,0.0162551,0,1,-27.369911,-2.80101)">JSGAM</tspan></text>

</g></g>
</g></g></svg>
