<?xml version="1.0" encoding="UTF-8" standalone="no"?>
<svg
   xmlns:osb="http://www.openswatchbook.org/uri/2009/osb"
   xmlns:dc="http://purl.org/dc/elements/1.1/"
   xmlns:cc="http://creativecommons.org/ns#"
   xmlns:rdf="http://www.w3.org/1999/02/22-rdf-syntax-ns#"
   xmlns:svg="http://www.w3.org/2000/svg"
   xmlns="http://www.w3.org/2000/svg"
   xmlns:xlink="http://www.w3.org/1999/xlink"
   xmlns:sodipodi="http://sodipodi.sourceforge.net/DTD/sodipodi-0.dtd"
   xmlns:inkscape="http://www.inkscape.org/namespaces/inkscape"
   enable-background="new 0 0 512 512"
   height="50"
   id="Spell_x5F_Scroll"
   version="1.1"
   viewBox="0 0 100 50"
   width="100"
   xml:space="preserve"
   sodipodi:docname="jsgam-logo.svg"
   inkscape:version="0.92.4 5da689c313, 2019-01-14"><metadata
     id="metadata61"><rdf:RDF><cc:Work
         rdf:about=""><dc:format>image/svg+xml</dc:format><dc:type
           rdf:resource="http://purl.org/dc/dcmitype/StillImage" /><dc:title></dc:title></cc:Work></rdf:RDF></metadata><defs
     id="defs59"><linearGradient
       id="linearGradient887"
       osb:paint="solid"><stop
         style="stop-color:#ffddcd;stop-opacity:1;"
         offset="0"
         id="stop885" /></linearGradient></defs><sodipodi:namedview
     pagecolor="#ffffff"
     bordercolor="#666666"
     borderopacity="1"
     objecttolerance="10"
     gridtolerance="10"
     guidetolerance="10"
     inkscape:pageopacity="0"
     inkscape:pageshadow="2"
     inkscape:window-width="1920"
     inkscape:window-height="1015"
     id="namedview57"
     showgrid="false"
     inkscape:zoom="2.6074562"
     inkscape:cx="-45.378519"
     inkscape:cy="65.848042"
     inkscape:window-x="0"
     inkscape:window-y="0"
     inkscape:window-maximized="1"
     inkscape:current-layer="Spell_x5F_Scroll"
     fit-margin-top="0"
     fit-margin-left="0"
     fit-margin-right="0"
     fit-margin-bottom="0"
     height="500px" /><linearGradient
     gradientUnits="userSpaceOnUse"
     id="SVGID_1_"
     x1="65.334503"
     x2="367.38611"
     y1="188.0972"
     y2="393.30801"><stop
       offset="0.0103"
       style="stop-color:#FFDDCD"
       id="stop2" /><stop
       offset="1"
       style="stop-color:#F79A80"
       id="stop4" /></linearGradient><linearGradient
     gradientUnits="userSpaceOnUse"
     id="SVGID_2_"
     x1="286.22461"
     x2="562.91272"
     y1="204.0674"
     y2="468.45789"
     xlink:href="#SVGID_1_"><stop
       offset="0.0103"
       style="stop-color:#FFDDCD"
       id="stop45" /><stop
       offset="1"
       style="stop-color:#F79A80"
       id="stop47" /></linearGradient><g
     id="g1167"
     transform="matrix(0.12345953,0,0,0.12572939,-6.3470654,-7.1888402)"
     inkscape:export-xdpi="45"
     inkscape:export-ydpi="45"
     style="display:inline"
     inkscape:label="Logo"><g
       id="g871"
       inkscape:export-xdpi="82.398048"
       inkscape:export-ydpi="82.398048"
       style="display:inline"><path
   d="m 56.727,159.284 c 3.669,8.513 9.077,23.904 9.053,40.645 -0.003,2.011 1.292,3.834 3.258,4.256 4.574,0.979 12.198,4.247 12.198,15.139 0,0 0,9.762 -8.884,13.65 -1.684,0.736 -2.75,2.422 -2.567,4.25 1.805,18.046 10.158,106.854 7.208,176.821 0,0 8.652,5.768 16.974,10.964 2.614,1.632 6.063,0.344 6.936,-2.611 1.631,-5.515 4.064,-14.063 5.793,-21.555 0,0 5.652,16.554 6.122,33.596 0.067,2.421 2.012,4.35 4.432,4.465 11.832,0.563 44.852,-0.203 67.712,-23.444 0,0 34.26693,-3.38249 85.13427,-7.6601 3.65736,-0.30756 7.63637,-17.55138 8.51109,-13.817 1.74483,7.44903 10.16955,-17.78174 12.13951,-14.55455 3.24309,5.31281 1.7504,26.51969 4.75953,26.27659 32.45702,-2.62203 69.59968,-5.41398 107.93108,-7.88349 3.45885,-0.22284 1.97832,-21.49905 8.23255,-16.38936 2.0589,1.68212 13.21198,-1.10613 18.10538,2.57282 2.08752,1.56943 -0.26629,9.85285 0.87053,9.79399 51.82092,-2.68288 103.13605,-4.52866 145.34782,-4.97091 2.75321,-0.0288 -12.21996,-8.38055 5.97158,-19.05155 2.20807,-1.29523 5.79741,6.23302 8.88895,11.55855 2.29227,3.94869 4.50429,7.38966 6.30028,7.3926 37.93446,0.062 65.72883,1.56106 75.33806,5.0276 0,0 57.25695,-103.98451 7.38195,-274.45551 0,0 -24.22732,-0.36434 -55.5473,0.65731 -5.7031,0.18603 -12.43984,13.21819 -15.46696,18.67483 -3.9038,7.03695 -5.40737,-11.5965 -8.38661,-14.23947 -3.437,-3.04905 -6.87625,-6.39539 -11.491,-6.67524 -23.51658,-1.42611 -54.69269,1.37257 -83.49219,1.39545 -2.85272,0.002 -15.16444,4.54411 -12.16145,13.98485 1.8357,5.77105 -6.78643,9.34936 -8.99031,9.35194 -5.58594,0.007 -5.22919,-23.30764 -10.84662,-23.29837 -32.35111,0.0534 -64.97007,0.15405 -94.92744,0.32609 -5.52724,0.0317 0.42595,14.16763 -4.90168,14.20437 -2.3061,0.0159 -9.98285,-1.28965 -11.64277,-5.87785 -2.39977,-6.63322 -12.17768,-8.13206 -14.91192,-8.10959 -53.01462,0.43558 -92.31906,1.16619 -97.23533,2.36198 -2.428,0.591 -4.262,2.57 -4.603,5.045 -0.921,6.686 -3.036,20.308 -5.986,28.737 -0.559,1.599 -2.856,1.497 -3.31,-0.134 -1.31,-4.705 -3.392,-12.349 -5.303,-20.092 -0.825,-3.34 -4.181,-5.364 -7.5,-4.457 -8.589,2.348 -26.073,8.633 -51.411,24.99 0,0 -36.283,23.009 -75.414,7.301 -2.973,-1.193 -5.908,-2.412 -8.949,-3.419 -6.126,-2.027 -16.693,-5.262 -26.005,-6.807 -3.394,-0.564 -6.028,2.905 -4.665,6.064 z"
   id="path7"
   style="opacity:1;fill:#ffffff;fill-opacity:1;stroke:#000000;stroke-width:10;stroke-miterlimit:4;stroke-dasharray:none;stroke-opacity:1"
   inkscape:connector-curvature="0"
   sodipodi:nodetypes="cccccccccccccssssssssssssccsssssssssssscccccccccccc"
   inkscape:export-xdpi="44.320015"
   inkscape:export-ydpi="44.320015" /><g
   id="g1057"
   transform="translate(400)"
   inkscape:export-xdpi="44.320015"
   inkscape:export-ydpi="44.320015"><path
     inkscape:connector-curvature="0"
     style="fill:#040000;fill-opacity:1;stroke:none;stroke-width:0.98321426;stroke-opacity:1"
     id="path9"
     d="m 275.369,390.11181 c 0,0 57.906,-102.49062 8.031,-267.28669 0,0 -8.926,-0.10923 -20.213,1.33986 5.65,31.03527 25.88,161.60206 -12.577,262.04423 8.101,-0.10441 16.456,1.00634 24.759,3.9026 z" /><path
     style="fill:#040000;fill-opacity:1;stroke:#000000;stroke-width:9.93059063;stroke-miterlimit:4;stroke-dasharray:none;stroke-opacity:1"
     id="path37"
     d="m 277.37394,106.938 c 0,0 13.0243,-17.457 43.09448,-31.779 22.09406,-10.522 46.7275,-14.84 71.00988,-12.31 11.63083,1.212 23.0536,3.977 28.8207,9.825 0,0 -3.93185,32.563 -17.69478,79.082 -9.9e-4,0 -95.1384,9.381 -125.23028,-44.818 z"
     inkscape:connector-curvature="0" /><path
     style="fill:#ffffff;fill-opacity:1;stroke:#000000;stroke-width:9.85652924;stroke-miterlimit:4;stroke-dasharray:none;stroke-opacity:1"
     id="path41"
     d="m 453.89048,126.531 c 0,0 -16.63228,-17.622 -51.50761,-19.271 l -8.15487,45.116 c 9.7e-4,0 47.56327,-1.071 59.66248,-25.845 z"
     inkscape:connector-curvature="0" /><path
     style="fill:#ffffff;fill-opacity:1;stroke:#000000;stroke-width:10;stroke-miterlimit:4;stroke-dasharray:none;stroke-opacity:1"
     id="path39"
     d="m 338.829,107.26 4.513,41.156 c 30.76,6.067 59.014,3.339 59.014,3.339 13.956,-46.519 17.943,-79.081 17.943,-79.081 0,0 -20.267,37.549 -81.47,34.586 z"
     inkscape:connector-curvature="0" /><path
     inkscape:connector-curvature="0"
     style="fill:#ffffff;fill-opacity:1;stroke:none;stroke-width:0.9056893;stroke-opacity:1"
     id="path43"
     d="m 390.13539,104.26873 c -2.67784,12.73026 -8.83472,31.36292 -23.75239,47.39012 19.18574,1.47056 33.67005,0.17002 33.67005,0.17002 13.06255,-40.76822 16.79431,-69.304826 16.79431,-69.304826 0,0 -7.35494,12.744284 -26.71197,21.744686 z" /><path
     sodipodi:nodetypes="ccsccccccccc"
     inkscape:connector-curvature="0"
     style="fill:#ffffff;fill-opacity:1;stroke:#000000;stroke-width:10;stroke-miterlimit:4;stroke-dasharray:none;stroke-opacity:1"
     id="path50"
     d="m 275.369,106.938 c 0,0 61.723,58.783 180.271,19.594 0,0 -0.007,0.0689 -0.0205,0.20462 -0.75331,7.47472 -22.19748,217.69583 -58.76346,293.71338 0,0 -21.566,23.226 -43.328,29.226 -3.007,0.829 -6.047,-1.267 -6.544,-4.346 l -4.013,-24.88 c 0,0 -4.845,13.729 -12.336,26.521 -1.318,2.251 -4.04,3.252 -6.483,2.337 -10.654,-3.988 -39.778,-15.392 -61.392,-28.563 -4.424,-2.695 -6.023,-8.305 -3.65,-12.908 14.403,-27.934 57.653,-131.19 16.259,-300.899 z" /><path
     inkscape:connector-curvature="0"
     style="fill:#040000;fill-opacity:1;stroke-width:0.9731133"
     id="path52"
     d="m 384.05295,143.53245 c 7.7734,7.14518 20.61881,23.07778 18.96802,49.51201 0,0 -1.57005,97.1297 -19.04195,193.09027 -2.78114,15.27745 -8.9699,29.86278 -18.90479,41.7925 -1.56518,1.87974 -3.2578,3.7517 -5.08466,5.5818 -1.54962,1.55365 -4.14399,1.23046 -5.18875,-0.69991 l -8.7627,-16.18277 3.90373,24.21867 c 0.48346,2.99728 3.44068,5.03765 6.36579,4.23162 21.1694,-5.84075 42.14813,-28.45029 42.14813,-28.45029 36.21617,-75.34273 57.18323,-286.11682 57.18323,-286.11682 -26.90581,8.90227 -50.76004,12.56734 -71.58605,13.02292 z" /></g><path
   inkscape:connector-curvature="0"
   d="m 154.50227,217.09615 c 0.004,-0.034 0.007,-0.068 0.008,-0.102 0,-0.015 0.004,-0.028 0.004,-0.042 0,-0.014 -0.004,-0.028 -0.004,-0.042 -0.001,-0.034 -0.004,-0.068 -0.008,-0.102 -0.003,-0.037 -0.008,-0.074 -0.014,-0.11 -0.006,-0.032 -0.012,-0.063 -0.02,-0.094 -0.003,-0.014 -0.003,-0.028 -0.007,-0.042 -0.004,-0.016 -0.012,-0.029 -0.017,-0.044 -0.01,-0.033 -0.021,-0.065 -0.033,-0.098 -0.014,-0.033 -0.026,-0.065 -0.041,-0.098 -0.014,-0.027 -0.026,-0.054 -0.04,-0.081 -0.015,-0.027 -0.031,-0.053 -0.048,-0.08 -0.019,-0.03 -0.038,-0.06 -0.059,-0.088 -0.019,-0.025 -0.036,-0.05 -0.056,-0.073 -0.02,-0.023 -0.04,-0.046 -0.062,-0.068 -0.023,-0.025 -0.048,-0.05 -0.074,-0.074 -0.021,-0.021 -0.044,-0.042 -0.067,-0.061 -0.023,-0.019 -0.049,-0.038 -0.073,-0.056 -0.029,-0.021 -0.058,-0.04 -0.088,-0.059 -0.026,-0.017 -0.054,-0.033 -0.081,-0.048 -0.026,-0.014 -0.053,-0.027 -0.08,-0.039 -0.031,-0.015 -0.063,-0.028 -0.096,-0.041 -0.033,-0.013 -0.067,-0.024 -0.102,-0.035 -0.015,-0.004 -0.027,-0.012 -0.042,-0.016 l -8.796,-2.372 c -1.6,-9.299 -8.868,-16.583 -18.165,-18.201 l -2.358,-8.749 c -0.004,-0.015 -0.012,-0.028 -0.017,-0.043 -0.01,-0.034 -0.021,-0.066 -0.033,-0.099 -0.014,-0.034 -0.027,-0.067 -0.042,-0.099 -0.013,-0.026 -0.025,-0.052 -0.038,-0.077 -0.016,-0.028 -0.031,-0.055 -0.049,-0.082 -0.02,-0.031 -0.039,-0.062 -0.062,-0.091 -0.017,-0.023 -0.033,-0.046 -0.051,-0.068 -0.021,-0.024 -0.042,-0.047 -0.063,-0.071 -0.024,-0.026 -0.05,-0.052 -0.077,-0.076 -0.021,-0.019 -0.041,-0.039 -0.063,-0.057 -0.024,-0.02 -0.05,-0.039 -0.075,-0.058 -0.03,-0.021 -0.061,-0.041 -0.091,-0.061 -0.025,-0.016 -0.05,-0.031 -0.076,-0.045 -0.026,-0.014 -0.054,-0.028 -0.082,-0.041 -0.032,-0.015 -0.064,-0.029 -0.099,-0.042 -0.031,-0.01 -0.064,-0.02 -0.096,-0.031 -0.016,-0.004 -0.028,-0.013 -0.044,-0.017 -0.014,-0.004 -0.028,-0.003 -0.042,-0.007 -0.031,-0.007 -0.062,-0.014 -0.093,-0.019 -0.036,-0.006 -0.072,-0.011 -0.109,-0.015 -0.036,-0.003 -0.071,-0.006 -0.106,-0.007 -0.014,0 -0.026,-0.004 -0.039,-0.004 -0.014,0 -0.027,0.004 -0.042,0.004 -0.033,0.001 -0.066,0.003 -0.1,0.007 -0.041,0.003 -0.08,0.009 -0.119,0.016 -0.03,0.005 -0.059,0.011 -0.088,0.019 -0.014,0.003 -0.028,0.003 -0.042,0.007 -0.014,0.004 -0.025,0.011 -0.039,0.015 -0.037,0.011 -0.073,0.023 -0.109,0.038 -0.031,0.012 -0.062,0.025 -0.092,0.039 -0.026,0.012 -0.051,0.024 -0.076,0.037 -0.03,0.016 -0.06,0.034 -0.089,0.052 -0.029,0.018 -0.056,0.037 -0.084,0.057 -0.023,0.017 -0.047,0.034 -0.07,0.053 -0.026,0.021 -0.05,0.043 -0.074,0.066 -0.025,0.023 -0.048,0.047 -0.072,0.072 -0.02,0.021 -0.04,0.042 -0.059,0.065 -0.021,0.025 -0.04,0.051 -0.059,0.078 -0.021,0.028 -0.04,0.057 -0.059,0.087 -0.016,0.026 -0.031,0.051 -0.046,0.078 -0.015,0.027 -0.028,0.055 -0.041,0.083 -0.015,0.032 -0.028,0.064 -0.041,0.097 -0.013,0.032 -0.023,0.064 -0.034,0.098 -0.004,0.015 -0.013,0.028 -0.017,0.044 l -2.353,8.726 c -9.361,1.574 -16.68,8.867 -18.288,18.223 l -8.797998,2.372 c -0.015,0.004 -0.027,0.012 -0.042,0.016 -0.035,0.01 -0.069,0.022 -0.103,0.035 -0.032,0.012 -0.063,0.025 -0.095,0.04 -0.026,0.012 -0.052,0.024 -0.078,0.038 -0.03,0.016 -0.058,0.033 -0.086,0.051 -0.029,0.018 -0.058,0.037 -0.085,0.058 -0.024,0.018 -0.048,0.034 -0.07,0.053 -0.025,0.021 -0.049,0.043 -0.073,0.065 -0.025,0.023 -0.048,0.047 -0.072,0.072 -0.02,0.021 -0.04,0.042 -0.059,0.065 -0.021,0.025 -0.04,0.051 -0.059,0.078 -0.021,0.028 -0.04,0.057 -0.058,0.087 -0.016,0.026 -0.031,0.051 -0.046,0.077 -0.015,0.027 -0.028,0.055 -0.041,0.083 -0.015,0.032 -0.028,0.064 -0.041,0.097 -0.009,0.032 -0.02,0.064 -0.03,0.097 -0.004,0.015 -0.013,0.028 -0.017,0.044 -0.004,0.014 -0.003,0.028 -0.007,0.042 -0.007,0.031 -0.014,0.062 -0.019,0.094 -0.006,0.037 -0.011,0.073 -0.015,0.11 -0.003,0.034 -0.006,0.068 -0.007,0.102 0,0.015 -0.004,0.028 -0.004,0.042 0,0.014 0.004,0.028 0.004,0.042 10e-4,0.034 0.003,0.068 0.007,0.102 0.004,0.037 0.008,0.074 0.015,0.11 0.005,0.032 0.012,0.063 0.019,0.094 0.003,0.014 0.003,0.028 0.007,0.042 0.003,0.01 0.01,0.018 0.013,0.028 0.011,0.039 0.023,0.076 0.037,0.114 0.018,0.046 0.039,0.09 0.061,0.134 0.021,0.042 0.042,0.084 0.067,0.124 0.011,0.017 0.018,0.035 0.029,0.051 0.004,0.006 0.009,0.011 0.013,0.016 0.013,0.019 0.028,0.033 0.042,0.051 0.03,0.039 0.06,0.076 0.093,0.112 0.032,0.034 0.066,0.065 0.102,0.097 0.028,0.024 0.053,0.051 0.083,0.074 0.007,0.006 0.016,0.01 0.024,0.015 0.002,0.002 0.005,0.003 0.007,0.005 0.04,0.029 0.082,0.054 0.124,0.078 0.041,0.024 0.081,0.048 0.125,0.068 0.039,0.018 0.079,0.032 0.119,0.047 0.021,0.008 0.041,0.015 0.062,0.021 0.02,0.007 0.038,0.017 0.059,0.022 l 8.797998,2.372 c 1.599,9.3 8.868,16.584 18.165,18.202 l 2.358,8.747 c 0.003,0.011 0.01,0.018 0.013,0.028 0.011,0.038 0.023,0.076 0.037,0.114 0.018,0.046 0.039,0.09 0.061,0.134 0.021,0.042 0.042,0.084 0.067,0.124 0.011,0.017 0.018,0.035 0.029,0.051 0.004,0.006 0.009,0.011 0.013,0.016 0.013,0.019 0.028,0.033 0.042,0.051 0.03,0.039 0.06,0.076 0.093,0.112 0.032,0.034 0.066,0.065 0.102,0.097 0.028,0.024 0.053,0.051 0.083,0.074 0.007,0.006 0.016,0.01 0.024,0.015 0.002,0.002 0.005,0.003 0.007,0.005 0.04,0.029 0.082,0.054 0.124,0.078 0.041,0.024 0.081,0.048 0.125,0.068 0.039,0.018 0.079,0.032 0.119,0.047 0.021,0.008 0.041,0.015 0.062,0.021 0.02,0.007 0.038,0.017 0.059,0.022 0.012,0.003 0.023,0.002 0.035,0.005 0.114,0.027 0.231,0.047 0.354,0.047 0,0 0.001,0 0.001,0 v 0 0 0 0 c 0,0 0.001,0 0.001,0 0.123,0 0.24,-0.02 0.354,-0.047 0.012,-0.003 0.023,-0.002 0.035,-0.005 0.021,-0.006 0.039,-0.016 0.059,-0.022 0.021,-0.007 0.041,-0.014 0.062,-0.021 0.041,-0.015 0.08,-0.029 0.118,-0.047 0.045,-0.021 0.085,-0.044 0.127,-0.068 0.041,-0.024 0.083,-0.049 0.122,-0.078 0.003,-0.002 0.006,-0.003 0.009,-0.005 0.007,-0.006 0.016,-0.009 0.022,-0.015 0.03,-0.023 0.056,-0.05 0.084,-0.075 0.034,-0.031 0.068,-0.062 0.1,-0.095 0.034,-0.037 0.064,-0.075 0.095,-0.114 0.013,-0.018 0.028,-0.032 0.041,-0.05 0.004,-0.006 0.009,-0.01 0.012,-0.016 0.012,-0.016 0.019,-0.034 0.029,-0.051 0.025,-0.04 0.047,-0.082 0.068,-0.125 0.021,-0.044 0.042,-0.087 0.06,-0.133 0.015,-0.037 0.026,-0.075 0.038,-0.114 0.003,-0.011 0.01,-0.018 0.013,-0.028 l 2.353,-8.727 c 9.361,-1.573 16.681,-8.865 18.288,-18.223 l 8.798,-2.372 c 0.021,-0.006 0.038,-0.016 0.059,-0.022 0.021,-0.007 0.041,-0.014 0.062,-0.021 0.04,-0.015 0.08,-0.029 0.118,-0.047 0.045,-0.021 0.085,-0.044 0.127,-0.068 0.041,-0.024 0.083,-0.049 0.122,-0.078 0.003,-0.002 0.006,-0.003 0.009,-0.005 0.007,-0.006 0.016,-0.009 0.022,-0.015 0.03,-0.023 0.056,-0.05 0.084,-0.075 0.034,-0.031 0.068,-0.062 0.1,-0.095 0.034,-0.037 0.064,-0.075 0.095,-0.114 0.013,-0.018 0.028,-0.032 0.041,-0.05 0.004,-0.006 0.009,-0.01 0.012,-0.016 0.012,-0.016 0.019,-0.034 0.029,-0.051 0.025,-0.04 0.047,-0.082 0.068,-0.125 0.021,-0.044 0.042,-0.087 0.06,-0.133 0.015,-0.038 0.026,-0.076 0.038,-0.114 0.003,-0.01 0.01,-0.018 0.013,-0.028 0.004,-0.014 0.004,-0.028 0.007,-0.042 0.008,-0.031 0.014,-0.062 0.02,-0.094 -0.001,-0.034 0.004,-0.07 0.007,-0.107 z m -13.139,-4.839 -11.054,-2.98 -2.993,-11.101 c 6.922,1.735 12.329,7.154 14.047,14.081 z m -23.402,-14.113 -2.992,11.098 -11.181,3.015 c 1.729,-6.98 7.186,-12.414 14.173,-14.113 z m -14.172,23.501 11.054,2.98 2.993,11.101 c -6.923,-1.735 -12.329,-7.154 -14.047,-14.081 z m 23.402,14.113 2.992,-11.098 11.181,-3.015 c -1.729,6.98 -7.186,12.415 -14.173,14.113 z"
   id="path2"
   style="fill:#000000;fill-opacity:1"
   inkscape:export-xdpi="44.320015"
   inkscape:export-ydpi="44.320015" /><g
   aria-label="JSGAM"
   transform="matrix(1.0539943,-0.09709638,0,0.94877174,0,0)"
   style="font-style:normal;font-variant:normal;font-weight:bold;font-stretch:normal;font-size:163.40835571px;line-height:1.25;font-family:Elley;-inkscape-font-specification:'Elley Bold';letter-spacing:0.17081566px;word-spacing:0px;fill:#000000;fill-opacity:1;stroke:none;stroke-width:4.08520889"
   id="text1087"><path
     d="m 155.60415,362.87365 q 2.39368,-4.4682 6.22356,-15.23975 0.87768,-0.39894 4.14904,-11.0907 1.99473,-3.82988 9.17576,-28.64434 7.26083,-24.81445 7.34061,-36.54347 0.0798,-4.14904 -2.9522,-8.37787 -0.7181,0 -1.4362,-1.51599 v -0.23937 q 0,-2.47347 6.54271,-5.50546 0.7979,-0.39894 4.54799,-0.63831 7.10124,0.7181 10.77155,5.74482 3.75009,5.02673 3.59051,16.03764 -0.79789,15.87806 -7.18103,34.8679 -7.50019,23.13887 -17.31426,45.24049 -1.27663,3.11178 -3.90968,8.29808 -2.63304,5.1863 -8.93639,11.40986 -6.30335,6.22356 -18.91005,7.97893 -15.39932,1.11705 -21.4633,-5.90441 -5.1863,-6.30335 -4.38841,-14.52164 0.79789,-8.21829 5.34588,-12.28754 4.22883,-3.27136 9.01618,-3.11178 4.86714,0.0798 6.62251,3.82988 -8.29808,7.10125 -7.65977,17.15469 1.27663,5.98419 7.50019,5.98419 8.05871,0 13.3248,-12.92585 z"
     style="font-style:normal;font-variant:normal;font-weight:bold;font-stretch:normal;font-family:Elley;-inkscape-font-specification:'Elley Bold';letter-spacing:9.39813519px;word-spacing:0px;fill:#000000;fill-opacity:1;stroke:none;stroke-width:7.56902647;stroke-miterlimit:4;stroke-dasharray:none;stroke-opacity:1"
     id="path2096"
     inkscape:connector-curvature="0" /><path
     d="m 261.94621,264.09457 h -0.0798 q -8.13851,2.39368 -13.80354,13.80354 -2.63305,7.02145 -2.31389,17.95258 -0.95747,5.82461 10.05344,40.37335 1.27663,3.19157 2.63305,10.69176 1.43621,7.50019 -0.23937,16.277 -1.4362,6.06399 -6.78208,11.48965 -5.9842,7.10125 -21.06436,8.85661 h -0.71811 q -13.80353,0.31916 -20.66541,-6.7023 -4.38841,-4.70756 -5.1863,-13.72375 -0.79789,-9.01618 3.11178,-16.9951 3.90967,-7.97893 9.81408,-6.22356 l -4.70757,9.25555 q -3.51072,11.88859 0.31916,19.54836 2.87241,5.98419 11.48965,5.98419 h 0.79789 q 7.50019,0 11.72902,-8.05871 0.47874,-0.23937 1.59579,-4.38841 0.79789,-9.89386 -5.90441,-27.84644 -6.6225,-17.95258 -6.30335,-29.44223 -0.55852,-4.54799 -0.31915,-8.77682 0.31915,-4.22882 0.31915,-4.46819 1.99473,-14.52164 9.89387,-24.73467 9.6545,-10.13323 20.82499,-10.13323 3.75009,0 6.70229,1.59579 l 0.7979,0.39894 q 0.63831,-1.03726 0.63831,-3.11178 0.0798,-2.15431 -1.35642,-3.82988 1.75537,-3.43094 6.78209,-3.35115 3.19157,0 5.98419,2.07452 2.79262,1.99473 2.9522,7.89914 -0.79789,7.73955 -6.70229,16.91531 -5.82462,9.17577 -7.89914,18.98984 0,0.39895 0.0798,1.19684 -1.67557,-0.15958 -4.30862,-2.79262 -2.55325,-2.63305 -2.79262,-9.89387 0.0798,-4.30862 3.27136,-15.31953 z"
     style="font-style:normal;font-variant:normal;font-weight:bold;font-stretch:normal;font-family:Elley;-inkscape-font-specification:'Elley Bold';letter-spacing:9.39813519px;word-spacing:0px;fill:#000000;fill-opacity:1;stroke:none;stroke-width:7.56902647;stroke-miterlimit:4;stroke-dasharray:none;stroke-opacity:1"
     id="path2098"
     inkscape:connector-curvature="0" /><path
     d="m 365.65522,251.00914 h 0.47874 q 10.69176,0.0798 11.48965,10.93112 -0.0798,5.34588 -6.38314,16.43659 -6.30335,11.01091 -6.86187,18.67068 -1.516,0.7181 -1.516,1.19684 h -2.2341 q -4.22883,-2.79263 -4.62777,-10.85134 v -0.47874 q 0.0798,-8.1385 3.90967,-18.11215 0,-0.39895 1.03726,-3.27136 l -0.47874,-0.23937 q -9.65449,0 -24.01656,11.33007 l -7.10124,7.50019 q -1.83515,3.11178 -3.59051,4.22883 -2.39368,2.87241 -7.65977,11.72902 -14.20249,27.04855 -15.63869,46.59691 l 0.23937,1.03726 -0.23937,1.27663 q -2.15431,22.50056 12.92585,22.9793 8.37787,0.0798 16.3568,-9.97366 8.05871,-10.13323 10.77154,-22.50056 l 0.0798,-5.26609 q 0,-1.91494 -2.47346,-5.82461 0.0798,-4.38841 9.09597,-6.46293 l 1.27663,0.23937 q 0.23937,0 0.79789,-0.23937 5.26609,0.0798 9.49492,4.86714 2.71283,5.66504 2.47347,11.96839 -0.15958,6.22356 -5.58525,22.9793 -3.35115,8.8566 -12.52691,27.28792 -9.17576,18.43131 -8.21829,33.91042 l -2.55326,0.95747 h -0.23936 q -10.29282,-5.34588 -10.53218,-22.9793 0.87768,-11.33007 7.81934,-25.85171 v -0.31916 h -0.7181 q -3.90967,3.90968 -9.81408,6.14377 -5.9044,2.2341 -13.96311,2.31389 -23.21867,-0.23937 -26.41024,-27.60707 -0.31916,-18.03237 6.38314,-34.70832 6.70229,-16.67595 18.19194,-30.00075 13.80354,-15.23975 20.34626,-19.62816 2.39368,-2.39367 12.12796,-6.94166 8.9364,-4.70757 17.15469,-4.62778 3.51072,0.31916 3.75009,0.55853 v -0.23937 q 2.39368,0.47874 3.03199,1.03726 h 0.47874 l 0.0798,-1.27663 q 0,-1.11705 -1.75537,-4.54798 0.95748,-3.51073 5.34588,-4.22883 z"
     style="font-style:normal;font-variant:normal;font-weight:bold;font-stretch:normal;font-family:Elley;-inkscape-font-specification:'Elley Bold';letter-spacing:9.39813519px;word-spacing:0px;fill:#000000;fill-opacity:1;stroke:none;stroke-width:7.56902647;stroke-miterlimit:4;stroke-dasharray:none;stroke-opacity:1"
     id="path2100"
     inkscape:connector-curvature="0" /><path
     d="m 411.1181,316.11715 q 1.67557,-2.07452 4.78735,-2.71283 0.79789,3.03199 3.19157,4.06925 1.27663,0.55853 5.82461,0.55853 h 1.27663 q 8.05871,-0.87769 14.36206,-2.87242 4.94694,-10.45239 8.13851,-21.4633 3.19156,-11.09071 3.27135,-16.59616 l 0.0798,-4.54799 q 0,-3.98946 -3.19157,-7.57998 l -2.31388,-1.27662 h -1.19684 q -11.40986,-0.0798 -29.84118,39.89461 -3.51072,9.01619 -4.3884,12.52691 z m -10.61197,33.99022 q -6.78209,22.10162 -6.86188,25.77192 v 1.99473 q 0.95747,2.47347 0.95747,2.79263 v 0.23936 q -0.0798,2.71284 -5.82461,2.71284 -5.1863,-0.39895 -7.50019,-3.35115 -4.22883,-5.42567 -4.22883,-12.52691 0.0798,-6.54272 3.59052,-19.46857 2.63304,-9.81408 7.18103,-23.21867 10.61197,-31.19759 10.77155,-41.64998 0.47873,-7.26082 -3.82989,-8.45766 l -0.23937,-0.47874 q 0,-3.11178 6.30335,-5.1863 h 0.47874 q 7.34061,0 10.85134,4.30862 3.59051,4.22883 4.30861,8.1385 15.47912,-27.92623 30.24012,-28.08581 h 1.516 q 14.68122,0.0798 19.309,13.00565 1.59578,7.26082 1.59578,11.56944 l -0.0798,5.26609 q -0.0798,8.69702 -4.54799,22.81972 -4.3884,14.12269 -8.77681,25.13361 0,1.19684 -5.98419,16.03763 -0.95748,2.07452 -1.99474,4.62778 -6.14377,20.26647 -6.22356,23.77719 v 1.99473 q 0.95748,2.47347 0.95748,2.79263 v 0.23936 q -0.0798,2.71284 -5.82462,2.71284 -5.1863,-0.39895 -7.50019,-3.35115 -4.22883,-5.42567 -4.22883,-12.52691 0.0798,-8.05871 1.59579,-14.28227 1.59578,-6.22356 3.19157,-11.48965 3.82988,-9.97366 3.82988,-10.53218 l -0.47873,-0.23937 q -3.11178,0.95747 -5.26609,0.95747 -14.44186,0.15958 -17.55364,-5.1863 -1.11705,-1.35642 -1.51599,-3.03199 -4.94693,15.31953 -8.21829,26.17087 z"
     style="font-style:normal;font-variant:normal;font-weight:bold;font-stretch:normal;font-family:Elley;-inkscape-font-specification:'Elley Bold';letter-spacing:9.39813519px;word-spacing:0px;fill:#000000;fill-opacity:1;stroke:none;stroke-width:7.56902647;stroke-miterlimit:4;stroke-dasharray:none;stroke-opacity:1"
     id="path2102"
     inkscape:connector-curvature="0" /><path
     d="m 545.46617,252.60492 q 7.34061,-0.23937 11.72902,4.54799 4.38841,4.70756 5.10651,11.25028 0.31916,3.59052 0.7979,4.14904 0.31915,0 6.46292,-7.50019 13.16523,-10.85133 20.74521,-10.85133 0,-0.55853 4.62777,-0.7979 8.37787,0.39895 12.92586,6.7023 4.62777,6.22356 3.6703,17.0749 -0.79789,13.64396 -6.78208,30.24012 -3.35115,9.57471 -12.68649,37.66052 -6.22356,19.30899 -7.18103,27.20813 -0.87768,7.81934 0.95747,11.88859 -2.9522,2.55326 -7.26082,1.35642 -5.66504,-2.07452 -9.57471,-8.85661 -4.22883,-10.21302 -1.27663,-26.41023 1.516,-6.46293 4.14904,-13.16523 2.07452,-7.02145 8.77682,-26.96876 2.07452,-5.98419 6.14377,-20.82499 4.14904,-14.8408 2.79262,-18.98984 -1.35641,-4.22883 -5.02672,-4.22883 -6.30335,0 -13.72375,9.81408 -3.6703,4.38841 -6.94166,9.89386 -5.98419,11.40986 -10.3726,24.33572 l -11.33007,34.46895 q 0,0.87768 -3.98947,15.00038 -3.98946,14.0429 -1.51599,19.2292 0.31916,0.47874 0.31916,1.03726 v 0.23937 q 0,2.15431 -5.50546,3.59052 -11.8886,0.79789 -14.68122,-10.29281 -0.79789,-3.19157 -0.23937,-10.93113 1.99473,-10.53218 4.06925,-16.51637 2.9522,-7.18103 9.81408,-30.16033 1.03726,-2.87242 6.30335,-20.26647 5.34588,-17.47384 5.02672,-23.05909 -0.23937,-5.58524 -4.30862,-5.58524 -6.70229,0 -20.7452,21.94204 -10.21302,18.5111 -14.76101,33.83063 -2.55325,7.89914 -9.01618,24.57509 -2.87242,7.50018 -2.87242,9.09597 -1.03726,0.87768 -3.11178,9.17576 -1.99473,8.21829 2.79263,8.45766 -2.55326,6.14377 -5.74483,7.73956 -3.19157,1.51599 -8.1385,1.03726 -6.38314,0 -9.33534,-8.29808 -1.516,-5.9842 -0.23937,-13.64396 1.27663,-7.73956 4.62778,-15.87806 1.03726,-4.38841 10.3726,-32.95296 9.41513,-28.64433 7.26082,-35.10726 -1.516,-3.67031 -4.94693,-3.67031 v -0.23936 q 3.27136,-6.46293 10.13323,-6.46293 8.77682,0 11.8886,7.89913 3.11178,7.89914 2.31388,13.80354 v 0.79789 h 0.7979 q 9.33534,-17.23447 17.07489,-24.97403 8.45766,-7.50019 9.57471,-7.50019 2.87241,-2.23409 10.05344,-3.90967 z"
     style="font-style:normal;font-variant:normal;font-weight:bold;font-stretch:normal;font-family:Elley;-inkscape-font-specification:'Elley Bold';letter-spacing:9.39813519px;word-spacing:0px;fill:#000000;fill-opacity:1;stroke:none;stroke-width:7.56902647;stroke-miterlimit:4;stroke-dasharray:none;stroke-opacity:1"
     id="path2104"
     inkscape:connector-curvature="0" /></g>

</g></g></svg>